REM DIRINDEX 1\2,1\3,1\4,1\5
REM DIRNAME folder01,folder02,folder03,folder04,folder05
TITLE ""
FILE "1Q_j_2269-2282.mp3" MP3
  TRACK 01 AUDIO
    TITLE "3:cjc004_0506"
    INDEX 01 00:00:00
  TRACK 02 AUDIO
    TITLE "0:"
    INDEX 01 00:01:09
  TRACK 03 AUDIO
    TITLE "4:cjc004_0507"
    INDEX 01 00:01:40
  TRACK 04 AUDIO
    TITLE "0:"
    INDEX 01 00:02:34
  TRACK 05 AUDIO
    TITLE "5:cjc004_0508"
    INDEX 01 00:02:61
  TRACK 06 AUDIO
    TITLE "0:"
    INDEX 01 00:09:06
  TRACK 07 AUDIO
    TITLE "3:cjc004_0509"
    INDEX 01 00:09:63
  TRACK 08 AUDIO
    TITLE "0:"
    INDEX 01 00:11:07
  TRACK 09 AUDIO
    TITLE "4:cjc004_0510"
    INDEX 01 00:11:37
  TRACK 10 AUDIO
    TITLE "0:"
    INDEX 01 00:12:61
  TRACK 11 AUDIO
    TITLE "5:cjc004_0511"
    INDEX 01 00:13:14
  TRACK 12 AUDIO
    TITLE "0:"
    INDEX 01 00:20:16
  TRACK 13 AUDIO
    TITLE "3:cjc004_0512"
    INDEX 01 00:20:69
  TRACK 14 AUDIO
    TITLE "0:"
    INDEX 01 00:22:17
  TRACK 15 AUDIO
    TITLE "4:cjc004_0513"
    INDEX 01 00:22:46
  TRACK 16 AUDIO
    TITLE "0:"
    INDEX 01 00:23:65
  TRACK 17 AUDIO
    TITLE "5:cjc004_0514"
    INDEX 01 00:24:14
  TRACK 18 AUDIO
    TITLE "0:"
    INDEX 01 00:28:41
  TRACK 19 AUDIO
    TITLE "3:cjc004_0515"
    INDEX 01 00:29:23
  TRACK 20 AUDIO
    TITLE "0:"
    INDEX 01 00:31:31
  TRACK 21 AUDIO
    TITLE "4:cjc004_0516"
    INDEX 01 00:31:59
  TRACK 22 AUDIO
    TITLE "0:"
    INDEX 01 00:34:24
  TRACK 23 AUDIO
    TITLE "5:cjc004_0517"
    INDEX 01 00:34:45
  TRACK 24 AUDIO
    TITLE "0:"
    INDEX 01 00:39:31
  TRACK 25 AUDIO
    TITLE "3:cjc004_0518"
    INDEX 01 00:40:17
  TRACK 26 AUDIO
    TITLE "0:"
    INDEX 01 00:41:28
  TRACK 27 AUDIO
    TITLE "4:cjc004_0519"
    INDEX 01 00:41:57
  TRACK 28 AUDIO
    TITLE "0:"
    INDEX 01 00:43:05
  TRACK 29 AUDIO
    TITLE "5:cjc004_0520"
    INDEX 01 00:43:29
  TRACK 30 AUDIO
    TITLE "0:"
    INDEX 01 00:47:40
  TRACK 31 AUDIO
    TITLE "3:cjc004_0521"
    INDEX 01 00:48:22
  TRACK 32 AUDIO
    TITLE "0:"
    INDEX 01 00:49:39
  TRACK 33 AUDIO
    TITLE "4:cjc004_0522"
    INDEX 01 00:49:74
  TRACK 34 AUDIO
    TITLE "0:"
    INDEX 01 00:51:18
  TRACK 35 AUDIO
    TITLE "5:cjc004_0523"
    INDEX 01 00:51:42
  TRACK 36 AUDIO
    TITLE "0:"
    INDEX 01 00:56:04
  TRACK 37 AUDIO
    TITLE "3:cjc004_0524"
    INDEX 01 00:56:59
  TRACK 38 AUDIO
    TITLE "0:"
    INDEX 01 00:58:05
  TRACK 39 AUDIO
    TITLE "4:cjc004_0525"
    INDEX 01 00:58:40
  TRACK 40 AUDIO
    TITLE "0:"
    INDEX 01 00:59:61
  TRACK 41 AUDIO
    TITLE "5:cjc004_0526"
    INDEX 01 01:00:12
  TRACK 42 AUDIO
    TITLE "0:"
    INDEX 01 01:04:19
  TRACK 43 AUDIO
    TITLE "3:cjc004_0527"
    INDEX 01 01:04:70
  TRACK 44 AUDIO
    TITLE "0:"
    INDEX 01 01:06:20
  TRACK 45 AUDIO
    TITLE "4:cjc004_0528"
    INDEX 01 01:06:49
  TRACK 46 AUDIO
    TITLE "0:"
    INDEX 01 01:07:55
  TRACK 47 AUDIO
    TITLE "5:cjc004_0529"
    INDEX 01 01:08:05
  TRACK 48 AUDIO
    TITLE "0:"
    INDEX 01 01:12:48
  TRACK 49 AUDIO
    TITLE "3:cjc004_0530"
    INDEX 01 01:13:26
  TRACK 50 AUDIO
    TITLE "0:"
    INDEX 01 01:15:31
  TRACK 51 AUDIO
    TITLE "4:cjc004_0531"
    INDEX 01 01:15:70
  TRACK 52 AUDIO
    TITLE "0:"
    INDEX 01 01:17:61
  TRACK 53 AUDIO
    TITLE "5:cjc004_0532"
    INDEX 01 01:18:11
  TRACK 54 AUDIO
    TITLE "0:"
    INDEX 01 01:23:46
  TRACK 55 AUDIO
    TITLE "3:cjc004_0533"
    INDEX 01 01:24:26
  TRACK 56 AUDIO
    TITLE "0:"
    INDEX 01 01:25:27
  TRACK 57 AUDIO
    TITLE "4:cjc004_0534"
    INDEX 01 01:25:60
  TRACK 58 AUDIO
    TITLE "0:"
    INDEX 01 01:26:62
  TRACK 59 AUDIO
    TITLE "5:cjc004_0535"
    INDEX 01 01:27:12
  TRACK 60 AUDIO
    TITLE "0:"
    INDEX 01 01:30:05
  TRACK 61 AUDIO
    TITLE "3:cjc004_0536"
    INDEX 01 01:30:34
  TRACK 62 AUDIO
    TITLE "0:"
    INDEX 01 01:31:43
  TRACK 63 AUDIO
    TITLE "4:cjc004_0537"
    INDEX 01 01:31:67
  TRACK 64 AUDIO
    TITLE "0:"
    INDEX 01 01:33:34
  TRACK 65 AUDIO
    TITLE "5:cjc004_0538"
    INDEX 01 01:33:54
  TRACK 66 AUDIO
    TITLE "0:"
    INDEX 01 01:37:36
  TRACK 67 AUDIO
    TITLE "3:cjc004_0539"
    INDEX 01 01:38:12
  TRACK 68 AUDIO
    TITLE "0:"
    INDEX 01 01:39:25
  TRACK 69 AUDIO
    TITLE "4:cjc004_0540"
    INDEX 01 01:39:55
  TRACK 70 AUDIO
    TITLE "0:"
    INDEX 01 01:41:09
  TRACK 71 AUDIO
    TITLE "5:cjc004_0541"
    INDEX 01 01:41:32
  TRACK 72 AUDIO
    TITLE "0:"
    INDEX 01 01:49:14
  TRACK 73 AUDIO
    TITLE "3:cjc004_0542"
    INDEX 01 01:49:63
  TRACK 74 AUDIO
    TITLE "0:"
    INDEX 01 01:50:66
  TRACK 75 AUDIO
    TITLE "4:cjc004_0543"
    INDEX 01 01:51:17
  TRACK 76 AUDIO
    TITLE "0:"
    INDEX 01 01:52:28
  TRACK 77 AUDIO
    TITLE "5:cjc004_0544"
    INDEX 01 01:52:49
  TRACK 78 AUDIO
    TITLE "0:"
    INDEX 01 01:57:02
  TRACK 79 AUDIO
    TITLE "3:cjc004_0545"
    INDEX 01 01:57:53
  TRACK 80 AUDIO
    TITLE "0:"
    INDEX 01 01:58:60
  TRACK 81 AUDIO
    TITLE "4:cjc004_0546"
    INDEX 01 01:59:16
  TRACK 82 AUDIO
    TITLE "0:"
    INDEX 01 02:00:39
  TRACK 83 AUDIO
    TITLE "5:cjc004_0547"
    INDEX 01 02:00:67
  TRACK 84 AUDIO
    TITLE "0:"
    INDEX 01 02:04:64
